<?xml version="1.0" encoding="UTF-8"?>
<svg version="1.1" xmlns="http://www.w3.org/2000/svg" width="512" height="512">
<path d="M0 0 C1.01790619 0.00215515 2.03581238 0.0043103 3.08456421 0.00653076 C17.69363523 0.05620146 32.02575853 0.30709809 46.375 3.3125 C47.34985352 3.51117676 48.32470703 3.70985352 49.32910156 3.91455078 C97.7109774 14.03517194 141.69928269 35.9516877 177.375 70.3125 C178.3640332 71.26068604 178.3640332 71.26068604 179.37304688 72.22802734 C188.86130305 81.37247479 197.6012044 90.66984009 205.375 101.3125 C206.23306152 102.46355017 207.09113451 103.61459177 207.94921875 104.765625 C213.98736829 112.95680614 219.34595521 121.47054105 224.375 130.3125 C224.73948242 130.94430176 225.10396484 131.57610352 225.47949219 132.22705078 C247.08534998 169.97532572 256.85198095 212.74189997 256.6875 255.9375 C256.68534485 256.95540619 256.6831897 257.97331238 256.68096924 259.02206421 C256.63129854 273.63113523 256.38040191 287.96325853 253.375 302.3125 C253.07698486 303.77478027 253.07698486 303.77478027 252.77294922 305.26660156 C242.65232806 353.6484774 220.7358123 397.63678269 186.375 433.3125 C185.74287598 433.97185547 185.11075195 434.63121094 184.45947266 435.31054688 C175.31502521 444.79880305 166.01765991 453.5387044 155.375 461.3125 C154.22394983 462.17056152 153.07290823 463.02863451 151.921875 463.88671875 C143.73224019 469.92427396 135.22961724 475.30707302 126.375 480.3125 C125.66778809 480.7146875 124.96057617 481.116875 124.23193359 481.53125 C101.09654164 494.5566741 75.92537591 503.30551461 49.9375 508.625 C49.21860596 508.77235596 48.49971191 508.91971191 47.7590332 509.0715332 C33.08339502 511.86090125 18.55831162 512.66142619 3.64770508 512.62817383 C0.70811513 512.6250221 -2.2304558 512.64854926 -5.16992188 512.67382812 C-18.54306192 512.71848737 -31.43916711 511.51301542 -44.625 509.3125 C-46.33055054 509.03031616 -46.33055054 509.03031616 -48.07055664 508.74243164 C-91.33802759 500.97044532 -132.38793216 480.98345309 -165.625 452.3125 C-166.37007813 451.67828125 -167.11515625 451.0440625 -167.8828125 450.390625 C-181.38779833 438.57948485 -194.05918743 425.82889772 -204.625 411.3125 C-205.48149066 410.16255169 -206.33826433 409.01281411 -207.1953125 407.86328125 C-213.23534209 399.67315742 -218.61867614 391.16870382 -223.625 382.3125 C-224.0271875 381.60528809 -224.429375 380.89807617 -224.84375 380.16943359 C-237.8691741 357.03404164 -246.61801461 331.86287591 -251.9375 305.875 C-252.08485596 305.15610596 -252.23221191 304.43721191 -252.3840332 303.6965332 C-255.35789088 288.05024391 -255.99800362 272.57681954 -255.9375 256.6875 C-255.93534485 255.66959381 -255.9331897 254.65168762 -255.93096924 253.60293579 C-255.88129854 238.99386477 -255.63040191 224.66174147 -252.625 210.3125 C-252.42632324 209.33764648 -252.22764648 208.36279297 -252.02294922 207.35839844 C-241.90232806 158.9765226 -219.9858123 114.98821731 -185.625 79.3125 C-184.99287598 78.65314453 -184.36075195 77.99378906 -183.70947266 77.31445312 C-174.56502521 67.82619695 -165.26765991 59.0862956 -154.625 51.3125 C-153.47394983 50.45443848 -152.32290823 49.59636549 -151.171875 48.73828125 C-142.98224019 42.70072604 -134.47961724 37.31792698 -125.625 32.3125 C-124.91778809 31.9103125 -124.21057617 31.508125 -123.48193359 31.09375 C-100.34654164 18.0683259 -75.17537591 9.31948539 -49.1875 4 C-48.46860596 3.85264404 -47.74971191 3.70528809 -47.0090332 3.5534668 C-31.36274391 0.57960912 -15.88931954 -0.06050362 0 0 Z " fill="#75B500" transform="translate(255.625,-0.3125)"/>
<path d="M0 0 C0.94137149 -0.00538554 1.88274297 -0.01077108 2.85264087 -0.01631981 C6.00311067 -0.03061291 9.15316111 -0.02349215 12.3036499 -0.01637268 C14.5641463 -0.02207563 16.82463982 -0.0290396 19.08512878 -0.03717041 C25.22372036 -0.05512791 31.36216919 -0.05392817 37.50077915 -0.04822803 C42.62738028 -0.04513904 47.75395388 -0.05122561 52.8805511 -0.05726677 C65.66989493 -0.0721233 78.45913857 -0.06849148 91.2484785 -0.05640347 C102.34119831 -0.04647864 113.43375113 -0.05939907 124.52644518 -0.08333766 C135.92853386 -0.10775757 147.33051541 -0.11692984 158.73263526 -0.11068493 C165.12912378 -0.10731614 171.52547446 -0.10972514 177.92194366 -0.12693596 C183.94009293 -0.14242145 189.9579241 -0.13843132 195.97606087 -0.11963081 C198.18106844 -0.11594901 200.38609966 -0.11904141 202.59108543 -0.1295166 C205.60918355 -0.14275634 208.62623331 -0.13115193 211.64428711 -0.11352539 C212.50987503 -0.1231304 213.37546296 -0.1327354 214.26728082 -0.14263147 C221.47848665 -0.05641506 228.27992328 1.74001069 233.97845459 6.31736755 C234.48505615 6.95932068 234.99165771 7.6012738 235.51361084 8.26268005 C236.3005835 9.21787537 236.3005835 9.21787537 237.10345459 10.19236755 C241.46812489 16.69885219 242.0137441 21.57267285 241.98397827 29.23641968 C241.99523162 30.87828911 241.99523162 30.87828911 242.00671232 32.55332762 C242.02804905 36.22207629 242.02792878 39.89050479 242.027771 43.55931091 C242.038384 46.18920387 242.05021402 48.81909216 242.06317139 51.44897461 C242.09524923 58.59349279 242.10510109 65.73793866 242.11081362 72.88251948 C242.1145675 77.34473996 242.12337769 81.80694121 242.13331223 86.26915169 C242.16024318 98.62821858 242.18275962 110.98726692 242.1851902 123.34636593 C242.18534577 124.13671408 242.18550135 124.92706224 242.18566164 125.74136034 C242.18595269 127.34350653 242.18623806 128.94565273 242.18651779 130.54779892 C242.18666064 131.34308226 242.1868035 132.13836559 242.18695068 132.95774841 C242.18709035 133.75400399 242.18723002 134.55025957 242.18737392 135.3706441 C242.19051073 148.27933565 242.22711939 161.18769202 242.27858694 174.09627288 C242.3310285 187.35495192 242.35730323 200.61346538 242.35674131 213.87225062 C242.35699394 221.31447896 242.3682315 228.75632175 242.40791702 236.1984539 C242.44504224 243.19591377 242.44611072 250.19258348 242.42274475 257.19009972 C242.41987749 259.75920899 242.42899508 262.32836354 242.45092392 264.89738083 C242.47899521 268.40316551 242.46397831 271.90621551 242.43807983 275.41195679 C242.45642336 276.43024832 242.4747669 277.44853986 242.49366629 278.49768871 C242.40652896 283.70683682 241.96904497 286.58055398 238.17458153 290.30803776 C237.56095076 290.80937986 236.94731999 291.31072197 236.31509435 291.82725626 C232.44412676 295.30075091 230.91282706 300.01678132 230.19720459 305.0556488 C229.90426595 311.75543892 231.1313736 317.59695797 234.57611084 323.38768005 C236.37421404 325.32555178 238.25865353 327.08296909 240.22064209 328.8525238 C241.57611084 330.38768005 241.57611084 330.38768005 241.57611084 333.26268005 C240.57611084 335.38768005 240.57611084 335.38768005 239.57611084 336.38768005 C237.58916233 336.48438805 235.59872071 336.50955057 233.60942078 336.50793457 C231.66368919 336.50999657 231.66368919 336.50999657 229.6786499 336.51210022 C228.22772194 336.5085606 226.77679421 336.50492578 225.3258667 336.50120544 C223.80849713 336.50092358 222.29112742 336.50108129 220.77375793 336.50164795 C216.64170568 336.50193596 212.50968221 336.49603863 208.37763667 336.48907399 C204.06412192 336.48284108 199.75060657 336.4822367 195.43708801 336.48104858 C187.26310967 336.47793508 179.08914463 336.46972145 170.91517216 336.45969909 C161.61182115 336.44853854 152.30846952 336.44302765 143.00511348 336.43800366 C123.86210505 336.42753885 104.71910901 336.40993904 85.57611084 336.38768005 C85.59931396 337.37510193 85.62251709 338.3625238 85.64642334 339.37986755 C85.66447021 340.66119568 85.68251709 341.9425238 85.70111084 343.26268005 C85.72431396 344.53885193 85.74751709 345.8150238 85.77142334 347.12986755 C85.57611084 350.38768005 85.57611084 350.38768005 83.57611084 352.38768005 C78.57651261 353.2531722 74.78968731 350.77809912 70.51361084 348.51268005 C69.80656006 348.14787537 69.09950928 347.78307068 68.37103271 347.4072113 C67.05151213 346.72576875 65.73409923 346.04021668 64.4196167 345.34910583 C63.5070813 344.87320007 63.5070813 344.87320007 62.57611084 344.38768005 C61.55517334 343.82983826 61.55517334 343.82983826 60.51361084 343.26072693 C57.50496482 341.90501647 55.73619108 342.50841873 52.57611084 343.38768005 C48.85865414 345.16032664 45.32021452 347.24983238 41.76556396 349.32518005 C36.22494669 352.42358401 36.22494669 352.42358401 32.61126709 352.22361755 C30.57611084 351.38768005 30.57611084 351.38768005 29.57611084 350.38768005 C29.50339342 348.03454451 29.49240216 345.67934337 29.51361084 343.32518005 C29.52263428 342.03482849 29.53165771 340.74447693 29.54095459 339.4150238 C29.55255615 338.41600037 29.56415771 337.41697693 29.57611084 336.38768005 C28.44181641 336.41386414 27.30752197 336.44004822 26.13885498 336.46702576 C21.8954065 336.55812226 17.65204287 336.61514334 13.40789795 336.66233826 C11.57767154 336.68734796 9.74754365 336.72136738 7.91766357 336.76487732 C-11.8571698 337.22300238 -11.8571698 337.22300238 -18.42388916 331.38768005 C-20.54498291 329.3603363 -20.54498291 329.3603363 -21.86138916 327.45018005 C-22.3138501 326.82240662 -22.76631104 326.19463318 -23.23248291 325.5478363 C-26.86409665 318.96330385 -26.71359275 312.71603186 -26.69804382 305.38224792 C-26.7032805 304.16319488 -26.70851718 302.94414183 -26.71391255 301.68814778 C-26.72630881 298.3118728 -26.72975637 294.93580622 -26.72931564 291.55952287 C-26.7309663 287.91521195 -26.74403743 284.27093873 -26.75550842 280.62664795 C-26.77833786 272.66171032 -26.78627674 264.69679937 -26.79133487 256.73183346 C-26.79459412 251.75634554 -26.80111796 246.78086533 -26.80833626 241.80538177 C-26.8278991 228.02316919 -26.84430529 214.24096378 -26.84721279 200.45873642 C-26.84740036 199.577147 -26.84758793 198.69555758 -26.84778119 197.78725334 C-26.84814743 196.00014734 -26.84851113 194.21304135 -26.8488723 192.42593536 C-26.84905511 191.53884333 -26.84923792 190.65175131 -26.84942627 189.73777771 C-26.84960682 188.84960001 -26.84978737 187.9614223 -26.84997339 187.04633012 C-26.85351481 172.65567889 -26.88053658 158.26517731 -26.91792416 143.87457797 C-26.95602333 129.09150949 -26.97537038 114.30851525 -26.9756723 99.52539659 C-26.97625649 91.22857952 -26.98472367 82.93194103 -27.01366997 74.63516998 C-27.03820537 67.57032481 -27.04545223 60.50572335 -27.03042244 53.44084707 C-27.02326238 49.83846413 -27.02407108 46.23656222 -27.04683304 42.63423347 C-27.07130965 38.7229591 -27.05676181 34.81236754 -27.03862 30.90104675 C-27.05181996 29.77087435 -27.06501993 28.64070194 -27.0786199 27.47628188 C-26.9951246 19.5828484 -25.36791034 12.80266249 -19.98122209 6.77274203 C-13.70307021 1.21811128 -8.06032946 -0.05539434 0 0 Z " fill="#F64541" transform="translate(158.42388916015625,83.61231994628906)"/>
<path d="M0 0 C0.94137149 -0.00538554 1.88274297 -0.01077108 2.85264087 -0.01631981 C6.00311067 -0.03061291 9.15316111 -0.02349215 12.3036499 -0.01637268 C14.5641463 -0.02207563 16.82463982 -0.0290396 19.08512878 -0.03717041 C25.22372036 -0.05512791 31.36216919 -0.05392817 37.50077915 -0.04822803 C42.62738028 -0.04513904 47.75395388 -0.05122561 52.8805511 -0.05726677 C65.66989493 -0.0721233 78.45913857 -0.06849148 91.2484785 -0.05640347 C102.34119831 -0.04647864 113.43375113 -0.05939907 124.52644518 -0.08333766 C135.92853386 -0.10775757 147.33051541 -0.11692984 158.73263526 -0.11068493 C165.12912378 -0.10731614 171.52547446 -0.10972514 177.92194366 -0.12693596 C183.94009293 -0.14242145 189.9579241 -0.13843132 195.97606087 -0.11963081 C198.18106844 -0.11594901 200.38609966 -0.11904141 202.59108543 -0.1295166 C205.60918355 -0.14275634 208.62623331 -0.13115193 211.64428711 -0.11352539 C212.50987503 -0.1231304 213.37546296 -0.1327354 214.26728082 -0.14263147 C221.47848665 -0.05641506 228.27992328 1.74001069 233.97845459 6.31736755 C234.48505615 6.95932068 234.99165771 7.6012738 235.51361084 8.26268005 C236.3005835 9.21787537 236.3005835 9.21787537 237.10345459 10.19236755 C241.46812489 16.69885219 242.0137441 21.57267285 241.98397827 29.23641968 C241.99523162 30.87828911 241.99523162 30.87828911 242.00671232 32.55332762 C242.02804905 36.22207629 242.02792878 39.89050479 242.027771 43.55931091 C242.038384 46.18920387 242.05021402 48.81909216 242.06317139 51.44897461 C242.09524923 58.59349279 242.10510109 65.73793866 242.11081362 72.88251948 C242.1145675 77.34473996 242.12337769 81.80694121 242.13331223 86.26915169 C242.16024318 98.62821858 242.18275962 110.98726692 242.1851902 123.34636593 C242.18534577 124.13671408 242.18550135 124.92706224 242.18566164 125.74136034 C242.18595269 127.34350653 242.18623806 128.94565273 242.18651779 130.54779892 C242.18666064 131.34308226 242.1868035 132.13836559 242.18695068 132.95774841 C242.18709035 133.75400399 242.18723002 134.55025957 242.18737392 135.3706441 C242.19051073 148.27933565 242.22711939 161.18769202 242.27858694 174.09627288 C242.3310285 187.35495192 242.35730323 200.61346538 242.35674131 213.87225062 C242.35699394 221.31447896 242.3682315 228.75632175 242.40791702 236.1984539 C242.44504224 243.19591377 242.44611072 250.19258348 242.42274475 257.19009972 C242.41987749 259.75920899 242.42899508 262.32836354 242.45092392 264.89738083 C242.47899521 268.40316551 242.46397831 271.90621551 242.43807983 275.41195679 C242.45642336 276.43024832 242.4747669 277.44853986 242.49366629 278.49768871 C242.40652896 283.70683682 241.96904497 286.58055398 238.17458153 290.30803776 C237.56095076 290.80937986 236.94731999 291.31072197 236.31509435 291.82725626 C232.44412676 295.30075091 230.91282706 300.01678132 230.19720459 305.0556488 C229.90426595 311.75543892 231.1313736 317.59695797 234.57611084 323.38768005 C236.37421404 325.32555178 238.25865353 327.08296909 240.22064209 328.8525238 C241.57611084 330.38768005 241.57611084 330.38768005 241.57611084 333.26268005 C240.57611084 335.38768005 240.57611084 335.38768005 239.57611084 336.38768005 C237.58916233 336.48438805 235.59872071 336.50955057 233.60942078 336.50793457 C231.66368919 336.50999657 231.66368919 336.50999657 229.6786499 336.51210022 C228.22772194 336.5085606 226.77679421 336.50492578 225.3258667 336.50120544 C223.80849713 336.50092358 222.29112742 336.50108129 220.77375793 336.50164795 C216.64170568 336.50193596 212.50968221 336.49603863 208.37763667 336.48907399 C204.06412192 336.48284108 199.75060657 336.4822367 195.43708801 336.48104858 C187.26310967 336.47793508 179.08914463 336.46972145 170.91517216 336.45969909 C161.61182115 336.44853854 152.30846952 336.44302765 143.00511348 336.43800366 C123.86210505 336.42753885 104.71910901 336.40993904 85.57611084 336.38768005 C85.59931396 337.37510193 85.62251709 338.3625238 85.64642334 339.37986755 C85.66447021 340.66119568 85.68251709 341.9425238 85.70111084 343.26268005 C85.72431396 344.53885193 85.74751709 345.8150238 85.77142334 347.12986755 C85.57611084 350.38768005 85.57611084 350.38768005 83.57611084 352.38768005 C78.57651261 353.2531722 74.78968731 350.77809912 70.51361084 348.51268005 C69.80656006 348.14787537 69.09950928 347.78307068 68.37103271 347.4072113 C67.05151213 346.72576875 65.73409923 346.04021668 64.4196167 345.34910583 C63.5070813 344.87320007 63.5070813 344.87320007 62.57611084 344.38768005 C61.55517334 343.82983826 61.55517334 343.82983826 60.51361084 343.26072693 C57.50496482 341.90501647 55.73619108 342.50841873 52.57611084 343.38768005 C48.85865414 345.16032664 45.32021452 347.24983238 41.76556396 349.32518005 C36.22494669 352.42358401 36.22494669 352.42358401 32.61126709 352.22361755 C30.57611084 351.38768005 30.57611084 351.38768005 29.57611084 350.38768005 C29.50339342 348.03454451 29.49240216 345.67934337 29.51361084 343.32518005 C29.52263428 342.03482849 29.53165771 340.74447693 29.54095459 339.4150238 C29.55255615 338.41600037 29.56415771 337.41697693 29.57611084 336.38768005 C28.44181641 336.41386414 27.30752197 336.44004822 26.13885498 336.46702576 C21.8954065 336.55812226 17.65204287 336.61514334 13.40789795 336.66233826 C11.57767154 336.68734796 9.74754365 336.72136738 7.91766357 336.76487732 C-11.8571698 337.22300238 -11.8571698 337.22300238 -18.42388916 331.38768005 C-20.54498291 329.3603363 -20.54498291 329.3603363 -21.86138916 327.45018005 C-22.3138501 326.82240662 -22.76631104 326.19463318 -23.23248291 325.5478363 C-26.86409665 318.96330385 -26.71359275 312.71603186 -26.69804382 305.38224792 C-26.7032805 304.16319488 -26.70851718 302.94414183 -26.71391255 301.68814778 C-26.72630881 298.3118728 -26.72975637 294.93580622 -26.72931564 291.55952287 C-26.7309663 287.91521195 -26.74403743 284.27093873 -26.75550842 280.62664795 C-26.77833786 272.66171032 -26.78627674 264.69679937 -26.79133487 256.73183346 C-26.79459412 251.75634554 -26.80111796 246.78086533 -26.80833626 241.80538177 C-26.8278991 228.02316919 -26.84430529 214.24096378 -26.84721279 200.45873642 C-26.84740036 199.577147 -26.84758793 198.69555758 -26.84778119 197.78725334 C-26.84814743 196.00014734 -26.84851113 194.21304135 -26.8488723 192.42593536 C-26.84905511 191.53884333 -26.84923792 190.65175131 -26.84942627 189.73777771 C-26.84960682 188.84960001 -26.84978737 187.9614223 -26.84997339 187.04633012 C-26.85351481 172.65567889 -26.88053658 158.26517731 -26.91792416 143.87457797 C-26.95602333 129.09150949 -26.97537038 114.30851525 -26.9756723 99.52539659 C-26.97625649 91.22857952 -26.98472367 82.93194103 -27.01366997 74.63516998 C-27.03820537 67.57032481 -27.04545223 60.50572335 -27.03042244 53.44084707 C-27.02326238 49.83846413 -27.02407108 46.23656222 -27.04683304 42.63423347 C-27.07130965 38.7229591 -27.05676181 34.81236754 -27.03862 30.90104675 C-27.05181996 29.77087435 -27.06501993 28.64070194 -27.0786199 27.47628188 C-26.9951246 19.5828484 -25.36791034 12.80266249 -19.98122209 6.77274203 C-13.70307021 1.21811128 -8.06032946 -0.05539434 0 0 Z M-17.42388916 17.38768005 C-18.60524711 19.75039596 -18.5481764 21.15300577 -18.54693699 23.78799629 C-18.54892804 24.71856161 -18.55091909 25.64912693 -18.55297047 26.6078912 C-18.55005763 27.63705777 -18.54714479 28.66622433 -18.54414368 29.72657776 C-18.5449981 30.81451154 -18.54585253 31.90244531 -18.54673284 33.02334678 C-18.5483887 36.69314745 -18.54286452 40.36290308 -18.53741455 44.03269958 C-18.53713268 46.65365091 -18.53729042 49.27460231 -18.53785706 51.89555359 C-18.53838217 57.55079241 -18.53523663 63.20601972 -18.52961922 68.86125565 C-18.52150258 77.03784222 -18.51888883 85.21442321 -18.51763123 93.39101337 C-18.51544096 106.6560187 -18.50878157 119.9210179 -18.49932861 133.1860199 C-18.49015383 146.07404042 -18.48307332 158.96205927 -18.4788208 171.8500824 C-18.47855808 172.64409777 -18.47829535 173.43811315 -18.47802467 174.2561896 C-18.47671966 178.23941127 -18.47545595 182.22263296 -18.47421277 186.20585465 C-18.46384096 219.26646759 -18.44622334 252.327073 -18.42388916 285.38768005 C-17.34107666 284.95455505 -17.34107666 284.95455505 -16.23638916 284.51268005 C-15.30826416 284.14143005 -14.38013916 283.77018005 -13.42388916 283.38768005 C-12.69765256 283.02217356 -11.97141596 282.65666706 -11.22317219 282.28008461 C-7.04158672 280.94700543 -2.99884709 281.1001006 1.36463928 281.10920715 C2.35713108 281.10341475 3.34962287 281.09762235 4.37219018 281.09165442 C7.70102013 281.07463624 11.02971159 281.07177632 14.35858154 281.0688324 C16.74352865 281.05953549 19.1284725 281.04936718 21.51341248 281.03839111 C27.31937153 281.01388989 33.12530355 280.99848497 38.93130193 280.98707603 C45.68776313 280.97330971 52.44416891 280.94834976 59.20059373 280.92269273 C71.24933173 280.87723535 83.29807971 280.84061619 95.34686279 280.80955505 C107.05033114 280.7793652 118.75377508 280.74501292 130.45721436 280.70506287 C131.53952332 280.70137054 131.53952332 280.70137054 132.64369712 280.69760363 C136.26348943 280.68522894 139.88328145 280.67277242 143.50307333 280.66027522 C173.52738534 280.5567232 203.55172623 280.467662 233.57611084 280.38768005 C233.6676537 247.36736897 233.7381431 214.34709078 233.78037216 181.32668176 C233.78537502 177.4288828 233.79055231 173.5310841 233.7958374 169.63328552 C233.79741126 168.46930656 233.79741126 168.46930656 233.79901692 167.28181286 C233.81642516 154.71489998 233.84796514 142.14806023 233.88472202 129.58119075 C233.92211982 116.68772485 233.94434423 103.79429728 233.95246482 90.90077937 C233.95795502 82.9438842 233.97529915 74.98719577 234.00777671 67.03036423 C234.03140756 60.9304343 234.03393363 54.83068245 234.02854156 48.73070145 C234.02964384 46.22729468 234.03762465 43.72388023 234.05293274 41.22052002 C234.0727881 37.80666093 234.06806541 34.39369163 234.05712891 30.97981262 C234.07460595 29.48855836 234.07460595 29.48855836 234.09243608 27.96717775 C234.03303979 21.12357681 232.82631505 17.66121109 227.94329834 12.7431488 C222.56734029 8.53526541 219.3871142 8.23910611 212.68225098 8.24050903 C211.74964203 8.23683235 210.81703309 8.23315566 209.85616326 8.22936755 C206.71170021 8.2182998 203.56727017 8.21448165 200.42279053 8.2106781 C198.17610061 8.2044158 195.92941173 8.19776921 193.682724 8.19076538 C187.56486969 8.17333431 181.44702321 8.16279796 175.3291502 8.15455985 C171.50953471 8.14941436 167.68992168 8.14333844 163.87030792 8.13704872 C153.29655624 8.12017617 142.72280671 8.10554116 132.14904404 8.09829998 C129.40451811 8.09639006 126.6599922 8.09446973 123.91546631 8.09251404 C123.23332039 8.0920303 122.55117447 8.09154656 121.84835747 8.09104816 C110.79795919 8.08274781 99.74766917 8.05741137 88.69731817 8.02493336 C77.35415507 7.99186637 66.01106637 7.97418435 54.66784787 7.97065574 C48.29823537 7.96830158 41.92879392 7.95929343 35.55922699 7.93419456 C29.56743457 7.9109663 23.57592645 7.9066596 17.58410072 7.91695595 C15.38385639 7.91745269 13.18359832 7.91109175 10.98339653 7.8973999 C7.98122303 7.87976152 4.9800787 7.88674782 1.97790527 7.89993286 C1.1057194 7.88896362 0.23353353 7.87799437 -0.66508222 7.86669272 C-8.48802702 7.94972956 -12.87649107 10.98763829 -17.42388916 17.38768005 Z " fill="#A03513" transform="translate(158.42388916015625,83.61231994628906)"/>
<path d="M0 0 C0.96134365 -0.00085442 1.92268731 -0.00170885 2.91316259 -0.00258917 C6.15455984 -0.00424446 9.39590605 0.00127824 12.63729858 0.00672913 C14.95283507 0.00701101 17.26837165 0.00685323 19.58390808 0.00628662 C25.8873154 0.0059987 32.19070385 0.01189449 38.49410677 0.01886058 C45.07515143 0.02509509 51.65619649 0.02569799 58.23724365 0.02688599 C69.28873015 0.02947831 80.34021001 0.03589893 91.39169312 0.04481506 C102.77613286 0.05399029 114.16057073 0.06107058 125.54501343 0.06532288 C126.5971412 0.06571696 126.5971412 0.06571696 127.67052408 0.06611901 C131.18923954 0.06742402 134.70795502 0.06868773 138.2266705 0.06993091 C167.43044559 0.08030219 196.63421379 0.09799354 225.83798218 0.12025452 C225.48357056 0.98183167 225.12915894 1.84340881 224.76400757 2.73109436 C224.07552734 4.4512677 224.07552734 4.4512677 223.37313843 6.20619202 C222.91560181 7.33589417 222.45806519 8.46559631 221.98666382 9.62953186 C218.77408387 19.39222435 220.86980971 27.97274047 224.83798218 37.12025452 C225.16798218 38.11025452 225.49798218 39.10025452 225.83798218 40.12025452 C178.97798218 40.12025452 132.11798218 40.12025452 83.83798218 40.12025452 C83.83798218 34.84025452 83.83798218 29.56025452 83.83798218 24.12025452 C142.24798218 23.62525452 142.24798218 23.62525452 201.83798218 23.12025452 C202.16798218 21.47025452 202.49798218 19.82025452 202.83798218 18.12025452 C201.07050359 16.35277593 198.72379274 16.99775097 196.36958545 16.99117321 C195.18332454 16.99554247 195.18332454 16.99554247 193.97309875 17 C193.13919965 16.99914558 192.30530054 16.99829115 191.44613177 16.99741083 C188.63003128 16.99575347 185.81398935 17.00128157 182.99789429 17.00672913 C180.98792014 17.00701097 178.97794589 17.00685332 176.9679718 17.00628662 C171.49299008 17.00599853 166.01803005 17.01189709 160.54305339 17.01886058 C154.82817744 17.02509224 149.11330106 17.02569777 143.39842224 17.02688599 C132.56824792 17.02999986 121.73808364 17.038214 110.90791374 17.04823548 C98.58164516 17.05939488 86.25537611 17.06490663 73.92910373 17.06993091 C48.56539097 17.08039657 23.20168714 17.09799709 -2.16201782 17.12025452 C-2.54420549 18.77640109 -2.87596884 20.44482476 -3.16201782 22.12025452 C-1.27570239 24.00656995 1.97998911 23.36290744 4.49813843 23.43666077 C5.49483803 23.46783241 5.49483803 23.46783241 6.51167297 23.49963379 C8.64116761 23.5651911 10.77078886 23.62404237 12.90048218 23.68275452 C14.34125065 23.72593391 15.78200617 23.769548 17.2227478 23.81361389 C20.76103121 23.92169978 24.29940615 24.02072545 27.83798218 24.12025452 C27.83798218 29.40025452 27.83798218 34.68025452 27.83798218 40.12025452 C22.67757585 40.2123133 17.52004117 40.29187729 12.35946655 40.33998108 C10.60578738 40.36004162 8.85217465 40.38729703 7.09872437 40.42201233 C4.571539 40.47077754 2.04524127 40.49327844 -0.48233032 40.51087952 C-1.26069244 40.53152466 -2.03905457 40.5521698 -2.84100342 40.57344055 C-8.08884387 40.57558221 -10.97828222 39.55423078 -15.16201782 36.12025452 C-19.90119618 30.86873255 -20.38683861 26.68764992 -20.47451782 19.80775452 C-20.50352173 19.0607428 -20.53252563 18.31373108 -20.56240845 17.54408264 C-20.6228731 12.24644858 -19.63689639 9.33568098 -16.16201782 5.12025452 C-10.65380523 0.26778152 -7.18305514 -0.02302918 0 0 Z " fill="#D3D5D5" transform="translate(160.16201782226563,371.87974548339844)"/>
<path d="M0 0 C-0.00151888 0.63348938 -0.00303776 1.26697877 -0.00460267 1.9196648 C-0.09413081 39.47217863 -0.16275423 77.02467667 -0.20426132 114.57727539 C-0.2092641 119.08708026 -0.21444139 123.59688491 -0.21972656 128.10668945 C-0.2207758 129.00450371 -0.22182505 129.90231796 -0.22290608 130.8273387 C-0.24030745 145.36127698 -0.27184366 159.89515193 -0.30861118 174.42905264 C-0.34602807 189.34412582 -0.36823744 204.25916585 -0.37635398 219.17428404 C-0.3818402 228.37642724 -0.39916287 237.57839141 -0.43166587 246.7804795 C-0.45282298 253.09220444 -0.45919734 259.40383694 -0.45400551 265.71559476 C-0.45144558 269.35623655 -0.45534716 272.99656565 -0.4768219 276.63715172 C-0.49995841 280.58841124 -0.49193656 284.53926553 -0.48101807 288.49058533 C-0.49266943 289.63554519 -0.5043208 290.78050506 -0.51632524 291.96016067 C-0.45483036 300.19444724 1.43165932 305.87230961 5.75 312.8125 C11.43987335 318.34432131 17.60315017 319.59770692 25.3125 319.609375 C26.16682617 319.62591125 27.02115234 319.64244751 27.90136719 319.65948486 C30.60098688 319.7076482 33.30004466 319.7292645 36 319.75 C37.84247571 319.77818628 39.6849256 319.80811739 41.52734375 319.83984375 C46.01818283 319.91339811 50.50871575 319.96316537 55 320 C55.06058594 320.98742187 55.12117188 321.97484375 55.18359375 322.9921875 C55.30927734 324.91417969 55.30927734 324.91417969 55.4375 326.875 C55.51871094 328.15117187 55.59992188 329.42734375 55.68359375 330.7421875 C55.79206027 333.88300152 55.79206027 333.88300152 57 336 C48.09 339.96 48.09 339.96 39 344 C39 338.72 39 333.44 39 328 C37.79988281 328.02094727 36.59976563 328.04189453 35.36328125 328.06347656 C30.88309807 328.13623187 26.40296645 328.18192832 21.92236328 328.21972656 C19.98835448 328.23976141 18.05440565 328.26699729 16.12060547 328.30175781 C13.33025257 328.35063571 10.54070499 328.37305019 7.75 328.390625 C6.466698 328.42159271 6.466698 328.42159271 5.1574707 328.45318604 C-0.70372279 328.45534491 -5.10302375 327.30312081 -10 324 C-12.05859375 321.7109375 -12.05859375 321.7109375 -13.4375 319.375 C-14.14712891 318.21097656 -14.14712891 318.21097656 -14.87109375 317.0234375 C-16.70384508 313.73843685 -17.12672288 311.89598814 -17.13422108 308.1222744 C-17.13867892 307.08517401 -17.14313676 306.04807362 -17.14772969 304.97954595 C-17.14754533 303.831326 -17.14736097 302.68310605 -17.14717102 301.50009155 C-17.15268605 299.68064716 -17.15268605 299.68064716 -17.1583125 297.82444632 C-17.16745173 294.44672732 -17.17205175 291.06905696 -17.17470181 287.69133019 C-17.17860043 284.05245216 -17.18817919 280.41358827 -17.19691467 276.77471924 C-17.21669338 267.98048359 -17.22674785 259.18624676 -17.23564246 250.39199442 C-17.24002376 246.25183406 -17.24539104 242.11167499 -17.25063133 237.97151566 C-17.26764632 224.21004947 -17.2821402 210.44858409 -17.28938007 196.68710899 C-17.29129001 193.11448541 -17.29321034 189.54186184 -17.29516602 185.96923828 C-17.29564976 185.08126457 -17.2961335 184.19329085 -17.2966319 183.27840884 C-17.30493102 168.8958793 -17.33026473 154.51343297 -17.36274669 140.13093977 C-17.39581546 125.36835414 -17.41382874 110.60581079 -17.41702431 95.84318793 C-17.41918977 87.55310448 -17.42794335 79.26314231 -17.45348549 70.97309494 C-17.47519016 63.91215186 -17.48324416 56.85135949 -17.47351871 49.79038684 C-17.46897305 46.18834005 -17.47087518 42.58660423 -17.49028015 38.98460007 C-17.51115 35.07687438 -17.50092927 31.1695773 -17.48774719 27.2618103 C-17.49871644 26.12697468 -17.50968568 24.99213906 -17.52098733 23.82291448 C-17.45948653 16.27768768 -16.48706358 10.5272217 -10.96484375 4.94140625 C-10.29582031 4.48636719 -9.62679687 4.03132813 -8.9375 3.5625 C-8.26589844 3.08941406 -7.59429687 2.61632812 -6.90234375 2.12890625 C-4.60981 0.76844988 -2.68663688 0 0 0 Z " fill="#628C06" transform="translate(133,100)"/>
<path d="M0 0 C0 89.76 0 179.52 0 272 C-3.96 272.66 -7.92 273.32 -12 274 C-13.65 274.99 -15.3 275.98 -17 277 C-17.66 277 -18.32 277 -19 277 C-19.09154066 243.21532457 -19.16203114 209.43067997 -19.20426132 175.64590808 C-19.20926419 171.65798149 -19.21444147 167.67005514 -19.21972656 163.68212891 C-19.2207758 162.88819924 -19.22182505 162.09426957 -19.22290608 161.27628143 C-19.24031484 148.41837574 -19.27185511 135.56054153 -19.30861118 122.70267825 C-19.34600753 109.51088897 -19.36823308 96.31913715 -19.37635398 83.12729704 C-19.38184448 74.98614713 -19.39919025 66.84519926 -19.43166587 58.70411153 C-19.45529452 52.46317916 -19.45782314 46.22240105 -19.45243073 39.98143005 C-19.45353311 37.41997152 -19.46151529 34.85850548 -19.4768219 32.29709244 C-19.49667356 28.8044167 -19.49195586 25.31261093 -19.48101807 21.81991577 C-19.49266943 20.80240057 -19.5043208 19.78488538 -19.51632524 18.73653638 C-19.46740271 12.97132886 -18.92317016 9.53772874 -15 5 C-9.33333441 0.00793745 -8.27346423 0 0 0 Z " fill="#E7362D" transform="translate(159,92)"/>
<path d="M0 0 C5.61 0 11.22 0 17 0 C17.390625 3.3203125 17.78125 6.640625 18.171875 9.9609375 C19.10532594 15.12044385 19.10532594 15.12044385 23 24 C-23.86 24 -70.72 24 -119 24 C-119 18.72 -119 13.44 -119 8 C-80.06 7.67 -41.12 7.34 -1 7 C0.06537205 2.52297636 0.06537205 2.52297636 0 0 Z " fill="#E9E9E9" transform="translate(363,388)"/>
<path d="M0 0 C1.02330917 -0.0071553 2.04661835 -0.01431061 3.10093689 -0.02168274 C4.23334305 -0.02437164 5.36574921 -0.02706055 6.5324707 -0.02983093 C8.31053856 -0.03968773 8.31053856 -0.03968773 10.12452698 -0.04974365 C14.06909535 -0.06954169 18.01365044 -0.08115611 21.95825195 -0.09111023 C23.31669129 -0.09515744 24.67513042 -0.09927435 26.03356934 -0.10346031 C32.42105676 -0.12252843 38.80853258 -0.13675099 45.19604301 -0.14507228 C52.56012518 -0.15482433 59.92390513 -0.18108333 67.2878809 -0.22157317 C72.98311389 -0.25180741 78.6782607 -0.26654841 84.37357235 -0.26985329 C87.77273384 -0.27219729 91.1715731 -0.28107041 94.57064819 -0.30631447 C98.37196742 -0.33069361 102.17250328 -0.32974194 105.97387695 -0.32279968 C107.09008926 -0.33560974 108.20630157 -0.3484198 109.3563385 -0.36161804 C117.24879956 -0.30921772 123.96116886 0.83758793 129.70825195 6.58467102 C133.41398087 12.66206644 133.55811471 17.61853156 133.52954102 24.59712219 C133.53479797 26.17347694 133.53479797 26.17347694 133.54016113 27.78167725 C133.54895571 31.25123215 133.54313849 34.72058283 133.53637695 38.19013977 C133.53772395 40.59958943 133.53966477 43.00903882 133.54217529 45.41848755 C133.54512322 50.46471244 133.54083835 55.51086648 133.53149414 60.55708313 C133.52008151 67.03731749 133.5266727 73.51738652 133.53863907 79.99761486 C133.54585092 84.97057349 133.54357317 89.94349262 133.53838348 94.91645241 C133.53704607 97.30676099 133.5386979 99.69707311 133.54334259 102.08737755 C133.54839869 105.4201502 133.54071123 108.75265113 133.52954102 112.08540344 C133.53358948 113.08023743 133.53763794 114.07507141 133.54180908 115.10005188 C133.53616943 116.00430405 133.53052979 116.90855621 133.52471924 117.84020996 C133.52358816 119.02234715 133.52358816 119.02234715 133.52243423 120.2283659 C133.27075195 122.14717102 133.27075195 122.14717102 131.27075195 124.14717102 C126.7151964 123.59161546 126.7151964 123.59161546 125.27075195 122.14717102 C125.16758773 120.76501828 125.13281591 119.37767991 125.12599182 117.99169922 C125.11564407 116.64783646 125.11564407 116.64783646 125.10508728 115.27682495 C125.10116722 113.7908506 125.10116722 113.7908506 125.09716797 112.27485657 C125.09048096 111.23750366 125.08379395 110.20015076 125.0769043 109.13136292 C125.06281621 106.87016684 125.05093426 104.60895622 125.0409565 102.34773827 C125.02460283 98.77178057 125.00136703 95.19593046 124.97605896 91.62002563 C124.90513021 81.44984766 124.84514618 71.27962523 124.79394531 61.10932922 C124.76218412 54.89655123 124.72091278 48.68389543 124.67374992 42.4712162 C124.65770905 40.09932971 124.64539717 37.72741503 124.63684273 35.35548973 C124.62471266 32.03942312 124.6005714 28.72364451 124.57373047 25.40766907 C124.57314133 24.42309219 124.57255219 23.43851532 124.57194519 22.42410278 C124.56222687 21.5197348 124.55250854 20.61536682 124.54249573 19.68359375 C124.53826379 18.89952495 124.53403185 18.11545614 124.52967167 17.30762768 C124.22345548 14.75252366 123.75660009 13.25918666 122.27075195 11.14717102 C118.83147836 9.30179533 115.91672931 8.89486013 112.05134583 8.88215637 C111.02083603 8.87388321 109.99032623 8.86561005 108.92858887 8.85708618 C107.80891724 8.85806808 106.68924561 8.85904999 105.53564453 8.86006165 C103.7544648 8.84981209 103.7544648 8.84981209 101.93730164 8.83935547 C98.68961003 8.82223229 95.44202392 8.81368161 92.19429612 8.80831718 C88.79458053 8.80011341 85.39494767 8.77918828 81.99528503 8.7591095 C72.62252078 8.70603871 63.24970584 8.67257106 53.87685394 8.63935089 C45.2770473 8.60868181 36.67731183 8.57390159 28.0775978 8.52304029 C24.69281644 8.5034988 21.30812375 8.48827107 17.92328835 8.48269653 C14.15465382 8.47529273 10.38625046 8.45606258 6.61767578 8.4342804 C5.49193146 8.4352623 4.36618713 8.4362442 3.20632935 8.43725586 C2.18427902 8.4289827 1.1622287 8.42070953 0.10920715 8.41218567 C-0.78212512 8.40925255 -1.67345739 8.40631943 -2.59179974 8.40329742 C-4.72924805 8.14717102 -4.72924805 8.14717102 -6.72924805 6.14717102 C-6.05766455 0.64018638 -5.393839 0.02577104 0 0 Z " fill="#FAA19F" transform="translate(242.729248046875,107.85282897949219)"/>
<path d="M0 0 C49.17 0 98.34 0 149 0 C149.99 2.64 150.98 5.28 152 8 C101.84 8 51.68 8 0 8 C0 5.36 0 2.72 0 0 Z " fill="#628C06" transform="translate(244,420)"/>
<path d="M0 0 C13.2 0 26.4 0 40 0 C40 9.57 40 19.14 40 29 C33.66087012 26.88695671 28.95678678 25.07346699 23.359375 21.890625 C20.33577614 20.74926649 19.0677774 21.00150397 16 22 C13.56199744 23.14101803 11.18944526 24.30820809 8.8125 25.5625 C2.25366928 29 2.25366928 29 0 29 C0 19.43 0 9.86 0 0 Z " fill="#F64440" transform="translate(196,396)"/>
<path d="M0 0 C4.76287474 2.37744836 9.11612714 5.93709169 11 11 C11.73969842 16.68511073 11.29771624 21.16334952 8 26 C3.99653611 30.03627917 0.41408246 32.12458106 -5.3125 32.3125 C-9.94226662 32.25237316 -12.4369151 31.06591027 -16 28 C-20.39893104 23.00661882 -21.35676337 20.08984773 -21.28125 13.5390625 C-20.73016315 8.56397287 -17.99302299 5.87480597 -14.375 2.6875 C-9.73764578 -0.60746221 -5.58952985 -0.86494914 0 0 Z " fill="#B6D979" transform="translate(281,28)"/>
<path d="M0 0 C-0.020625 0.969375 -0.04125 1.93875 -0.0625 2.9375 C-0.35618499 5.87465895 -0.35618499 5.87465895 1 7 C3.21687994 7.15873955 5.43855298 7.25133837 7.66015625 7.31640625 C8.65685585 7.3475779 8.65685585 7.3475779 9.6736908 7.37937927 C11.80318543 7.44493658 13.93280668 7.50378785 16.0625 7.5625 C17.50326847 7.60567939 18.94402399 7.64929349 20.38476562 7.69335938 C23.92304903 7.80144527 27.46142397 7.90047093 31 8 C31 13.28 31 18.56 31 24 C25.83959367 24.09205878 20.682059 24.17162277 15.52148438 24.21972656 C13.76780521 24.2397871 12.01419247 24.26704251 10.26074219 24.30175781 C7.73355682 24.35052302 5.20725909 24.37302392 2.6796875 24.390625 C1.90132538 24.41127014 1.12296326 24.43191528 0.3210144 24.45318604 C-6.12800404 24.45581789 -9.66704658 22.26990063 -14.3125 17.75 C-16.47466678 14.22646895 -17.63177478 11.16128986 -17 7 C-12.36387616 1.7984952 -7.03991524 -0.41411266 0 0 Z " fill="#E9E9E9" transform="translate(157,388)"/>
<path d="M0 0 C0.598125 0.226875 1.19625 0.45375 1.8125 0.6875 C1.97105469 1.51894531 2.12960937 2.35039062 2.29296875 3.20703125 C2.52628906 4.29371094 2.75960938 5.38039062 3 6.5 C3.22042969 7.57894531 3.44085938 8.65789062 3.66796875 9.76953125 C5.0883005 13.39065007 6.30175751 14.13624169 9.8125 15.6875 C12.23345205 16.45055262 12.23345205 16.45055262 14.625 16.875 C15.41519531 17.03355469 16.20539063 17.19210938 17.01953125 17.35546875 C17.61121094 17.46503906 18.20289063 17.57460937 18.8125 17.6875 C19.3075 19.6675 19.3075 19.6675 19.8125 21.6875 C16.47264701 25.02735299 13.32975291 25.13256753 8.8359375 25.37890625 C6.58770561 25.51735025 6.58770561 25.51735025 4.8125 27.6875 C4.20193913 29.70963278 3.66886005 31.75577978 3.1875 33.8125 C2.92710937 34.90820312 2.66671875 36.00390625 2.3984375 37.1328125 C2.10839844 38.39738281 2.10839844 38.39738281 1.8125 39.6875 C-0.6625 40.1825 -0.6625 40.1825 -3.1875 40.6875 C-5.55671057 37.13368414 -5.49638834 34.99054515 -5.6484375 30.84375 C-6.02422631 28.55626999 -6.02422631 28.55626999 -7.90625 26.96484375 C-11.15997017 25.14298331 -14.28862787 24.88216154 -17.9453125 24.41015625 C-20.1875 23.6875 -20.1875 23.6875 -21.4921875 21.62109375 C-21.72164063 20.98300781 -21.95109375 20.34492188 -22.1875 19.6875 C-19.05472834 15.7795001 -15.40406291 15.9143128 -10.68359375 15.3125 C-7.84245856 14.89837151 -7.84245856 14.89837151 -6.1875 11.6875 C-5.86037763 9.40178423 -5.7480032 7.14885232 -5.62890625 4.84375 C-4.92979439 1.42861952 -3.65163618 -0.52166231 0 0 Z " fill="#B7D97B" transform="translate(452.1875,200.3125)"/>
<path d="M0 0 C4.79642058 2.39821029 7.60178971 5.20357942 10 10 C10.8565765 14.37028828 10.36877185 17.26245631 8.375 21.25 C5.3809015 24.7168509 2.69192851 27.47238201 -1.953125 28.3828125 C-7.05027553 28.6746341 -10.0736905 27.39090366 -14 24 C-17.39090366 20.0736905 -18.6746341 17.05027553 -18.3828125 11.953125 C-17.47238201 7.30807149 -14.7168509 4.6190985 -11.25 1.625 C-7.26245631 -0.36877185 -4.37028828 -0.8565765 0 0 Z " fill="#B6D879" transform="translate(446,304)"/>
<path d="M0 0 C2.475 0.495 2.475 0.495 5 1 C5.19335938 1.84304687 5.38671875 2.68609375 5.5859375 3.5546875 C5.97652344 5.19824219 5.97652344 5.19824219 6.375 6.875 C6.63023438 7.96554688 6.88546875 9.05609375 7.1484375 10.1796875 C7.78906215 13.10408455 7.78906215 13.10408455 10 15 C12.59192746 15.60798751 12.59192746 15.60798751 15.5 16 C20.77777778 16.77777778 20.77777778 16.77777778 23 19 C22.46428571 22.53571429 22.46428571 22.53571429 21 24 C18.74584622 24.28289181 16.49159344 24.4477119 14.2265625 24.62109375 C11.72079922 24.89200825 11.72079922 24.89200825 9 27 C7.9758672 30.10176346 7.9758672 30.10176346 7.3125 33.625 C7.06113281 34.81351563 6.80976562 36.00203125 6.55078125 37.2265625 C6.36902344 38.14179688 6.18726562 39.05703125 6 40 C3.525 40.495 3.525 40.495 1 41 C-1.07350867 37.889737 -1.27627309 36.58888943 -1.6875 33 C-2.11119454 30.34072057 -2.11119454 30.34072057 -3 28 C-6.13730036 25.80997772 -6.13730036 25.80997772 -10 25 C-11.31293464 24.60561072 -12.62545724 24.20984628 -13.9375 23.8125 C-14.948125 23.544375 -15.95875 23.27625 -17 23 C-17.33 21.68 -17.66 20.36 -18 19 C-13.25645564 16.77343836 -9.27749285 15.53851968 -4 15 C-3.87882812 14.16855469 -3.75765625 13.33710938 -3.6328125 12.48046875 C-3.46523438 11.39378906 -3.29765625 10.30710938 -3.125 9.1875 C-2.96257813 8.10855469 -2.80015625 7.02960938 -2.6328125 5.91796875 C-2 3 -2 3 0 0 Z " fill="#B7D97C" transform="translate(65,207)"/>
<path d="M0 0 C0.69919052 -0.00335861 1.39838104 -0.00671722 2.11875916 -0.01017761 C4.44125115 -0.01971426 6.76367126 -0.02163208 9.08618164 -0.02270508 C10.69421926 -0.0259158 12.30225659 -0.02927972 13.91029358 -0.03279114 C17.28558022 -0.03878922 20.66084122 -0.04063035 24.03613281 -0.04003906 C28.36865089 -0.03993741 32.70100522 -0.05359016 37.03348446 -0.07081127 C40.35596985 -0.08191084 43.6784154 -0.0839589 47.00091743 -0.08342934 C48.5985629 -0.08461252 50.19620929 -0.08905315 51.79383659 -0.0967617 C54.02543595 -0.10652055 56.25667655 -0.10370005 58.48828125 -0.09765625 C60.39570351 -0.09979378 60.39570351 -0.09979378 62.34165955 -0.10197449 C65.30883789 0.14526367 65.30883789 0.14526367 67.30883789 2.14526367 C66.75328234 6.70081923 66.75328234 6.70081923 65.30883789 8.14526367 C63.08039318 8.25017603 60.84857866 8.28383579 58.61767578 8.29052734 C57.91848526 8.29388596 57.21929474 8.29724457 56.49891663 8.30070496 C54.17642463 8.31024161 51.85400452 8.31215942 49.53149414 8.31323242 C47.92345652 8.31644314 46.3154192 8.31980707 44.7073822 8.32331848 C41.33209557 8.32931656 37.95683456 8.33115769 34.58154297 8.33056641 C30.24902489 8.33046475 25.91667057 8.34411751 21.58419132 8.36133862 C18.26170593 8.37243819 14.93926038 8.37448625 11.61675835 8.37395668 C10.01911288 8.37513987 8.42146649 8.37958049 6.82383919 8.38728905 C4.59223983 8.3970479 2.36099923 8.39422739 0.12939453 8.38818359 C-1.77802773 8.39032112 -1.77802773 8.39032112 -3.72398376 8.39250183 C-6.69116211 8.14526367 -6.69116211 8.14526367 -8.69116211 6.14526367 C-7.88994389 -0.42472576 -6.32486419 0.01897131 0 0 Z " fill="#FEFEFE" transform="translate(212.691162109375,211.854736328125)"/>
<path d="M0 0 C0.97448593 -0.00637985 1.94897186 -0.0127597 2.95298767 -0.01933289 C4.54355736 -0.02100212 4.54355736 -0.02100212 6.16625977 -0.02270508 C7.24770767 -0.02603348 8.32915558 -0.02936188 9.44337463 -0.03279114 C11.73584567 -0.0378651 14.02832413 -0.04019932 16.32080078 -0.04003906 C19.83907168 -0.04222478 23.35702883 -0.06037361 26.87524414 -0.0793457 C29.09724827 -0.0822796 31.3192539 -0.08426442 33.54125977 -0.08520508 C34.59961533 -0.09239059 35.65797089 -0.09957611 36.74839783 -0.10697937 C37.72603592 -0.10390274 38.70367401 -0.10082611 39.7109375 -0.09765625 C41.00547096 -0.09979378 41.00547096 -0.09979378 42.32615662 -0.10197449 C44.42016602 0.14526367 44.42016602 0.14526367 46.42016602 2.14526367 C45.86461046 6.70081923 45.86461046 6.70081923 44.42016602 8.14526367 C42.89630371 8.24885146 41.36769616 8.28377506 39.84033203 8.29052734 C38.37860313 8.30009712 38.37860313 8.30009712 36.88734436 8.30986023 C35.29677467 8.31152946 35.29677467 8.31152946 33.67407227 8.31323242 C32.59262436 8.31656082 31.51117645 8.31988922 30.3969574 8.32331848 C28.10448636 8.32839245 25.8120079 8.33072666 23.51953125 8.33056641 C20.00126035 8.33275212 16.4833032 8.35090095 12.96508789 8.36987305 C10.74308376 8.37280695 8.52107813 8.37479177 6.29907227 8.37573242 C5.24071671 8.38291794 4.18236115 8.39010345 3.0919342 8.39750671 C1.62547707 8.39289177 1.62547707 8.39289177 0.12939453 8.38818359 C-1.16513893 8.39032112 -1.16513893 8.39032112 -2.48582458 8.39250183 C-4.57983398 8.14526367 -4.57983398 8.14526367 -6.57983398 6.14526367 C-5.92011988 0.73560804 -5.31274166 0.02348698 0 0 Z " fill="#FEFDFD" transform="translate(273.579833984375,187.854736328125)"/>
<path d="M0 0 C1.43169777 -0.00956978 1.43169777 -0.00956978 2.89231873 -0.01933289 C4.45007774 -0.02100212 4.45007774 -0.02100212 6.03930664 -0.02270508 C7.0985585 -0.02603348 8.15781036 -0.02936188 9.24916077 -0.03279114 C11.49455327 -0.03786502 13.73995334 -0.04019932 15.98535156 -0.04003906 C19.43119667 -0.04222474 22.87672141 -0.06037354 26.32250977 -0.0793457 C28.49894096 -0.08227961 30.67537368 -0.08426443 32.85180664 -0.08520508 C34.40652931 -0.09598335 34.40652931 -0.09598335 35.99266052 -0.10697937 C36.95027786 -0.10390274 37.9078952 -0.10082611 38.89453125 -0.09765625 C39.73978867 -0.09908127 40.58504608 -0.10050629 41.45591736 -0.10197449 C43.51196289 0.14526367 43.51196289 0.14526367 45.51196289 2.14526367 C44.95640734 6.70081923 44.95640734 6.70081923 43.51196289 8.14526367 C42.01874992 8.24876561 40.52070632 8.28377106 39.02392578 8.29052734 C38.0694606 8.2969072 37.11499542 8.30328705 36.13160706 8.30986023 C34.57384804 8.31152946 34.57384804 8.31152946 32.98461914 8.31323242 C31.92536728 8.31656082 30.86611542 8.31988922 29.77476501 8.32331848 C27.52937252 8.32839236 25.28397244 8.33072667 23.03857422 8.33056641 C19.59272911 8.33275209 16.14720437 8.35090088 12.70141602 8.36987305 C10.52498483 8.37280696 8.34855211 8.37479177 6.17211914 8.37573242 C5.13563736 8.38291794 4.09915558 8.39010345 3.03126526 8.39750671 C2.07364792 8.39443008 1.11603058 8.39135345 0.12939453 8.38818359 C-0.71586288 8.38960861 -1.5611203 8.39103363 -2.43199158 8.39250183 C-4.48803711 8.14526367 -4.48803711 8.14526367 -6.48803711 6.14526367 C-5.83571169 0.79619522 -5.26225354 0.02375317 0 0 Z " fill="#FEFDFD" transform="translate(210.488037109375,187.854736328125)"/>
<path d="M0 0 C4.55555556 0.55555556 4.55555556 0.55555556 6 2 C6.10312037 3.37059593 6.13848953 4.74639659 6.14526367 6.12084961 C6.15483345 7.43242287 6.15483345 7.43242287 6.16459656 8.77049255 C6.16570938 9.72150345 6.1668222 10.67251434 6.16796875 11.65234375 C6.17129715 12.62281143 6.17462555 13.59327911 6.17805481 14.59315491 C6.1831283 16.6502332 6.18546301 18.70731975 6.18530273 20.7644043 C6.18748826 23.92054744 6.20563691 27.07634071 6.22460938 30.23242188 C6.22754333 32.2265613 6.22952811 34.22070239 6.23046875 36.21484375 C6.23765427 37.16383041 6.24483978 38.11281708 6.25224304 39.09056091 C6.24916641 39.96809525 6.24608978 40.84562958 6.24291992 41.74975586 C6.24434494 42.5239537 6.24576996 43.29815155 6.24723816 44.09580994 C6 46 6 46 4 48 C-0.55555556 47.44444444 -0.55555556 47.44444444 -2 46 C-2.10312037 44.62940407 -2.13848953 43.25360341 -2.14526367 41.87915039 C-2.15164352 41.00476822 -2.15802338 40.13038605 -2.16459656 39.22950745 C-2.16570938 38.27849655 -2.1668222 37.32748566 -2.16796875 36.34765625 C-2.17129715 35.37718857 -2.17462555 34.40672089 -2.17805481 33.40684509 C-2.1831283 31.3497668 -2.18546301 29.29268025 -2.18530273 27.2355957 C-2.18748826 24.07945256 -2.20563691 20.92365929 -2.22460938 17.76757812 C-2.22754333 15.7734387 -2.22952811 13.77929761 -2.23046875 11.78515625 C-2.23765427 10.83616959 -2.24483978 9.88718292 -2.25224304 8.90943909 C-2.24916641 8.03190475 -2.24608978 7.15437042 -2.24291992 6.25024414 C-2.24434494 5.4760463 -2.24576996 4.70184845 -2.24723816 3.90419006 C-2 2 -2 2 0 0 Z " fill="#FAA19F" transform="translate(370,252)"/>
<path d="M0 0 C1.31419922 -0.01224609 2.62839844 -0.02449219 3.98242188 -0.03710938 C5.23474609 -0.03904297 6.48707031 -0.04097656 7.77734375 -0.04296875 C8.93355225 -0.04707764 10.08976074 -0.05118652 11.28100586 -0.05541992 C14.0625 0.1875 14.0625 0.1875 16.0625 2.1875 C15.50694444 6.74305556 15.50694444 6.74305556 14.0625 8.1875 C9.42234675 8.4416555 4.77128694 8.37272798 0.125 8.375 C-1.18919922 8.38724609 -2.50339844 8.39949219 -3.85742188 8.41210938 C-5.10974609 8.41404297 -6.36207031 8.41597656 -7.65234375 8.41796875 C-9.38665649 8.42413208 -9.38665649 8.42413208 -11.15600586 8.43041992 C-13.9375 8.1875 -13.9375 8.1875 -15.9375 6.1875 C-14.84705137 -2.75417876 -7.54753556 0.00369073 0 0 Z " fill="#FAA09E" transform="translate(203.9375,107.8125)"/>
<path d="M0 0 C0.66 0.66 1.32 1.32 2 2 C1.98252073 4.75589777 1.86136729 7.38786676 1.625 10.125 C1.56828125 10.87910156 1.5115625 11.63320313 1.453125 12.41015625 C1.3115535 14.27418096 1.15700041 16.13721137 1 18 C-2.08367051 16.54237887 -5.16687672 15.08377822 -8.25 13.625 C-9.55904297 13.00625 -9.55904297 13.00625 -10.89453125 12.375 C-11.73886719 11.97539062 -12.58320313 11.57578125 -13.453125 11.1640625 C-14.61569824 10.61419678 -14.61569824 10.61419678 -15.80175781 10.05322266 C-17.87959193 9.05768996 -19.9425569 8.03691854 -22 7 C-19.46758398 5.62551767 -16.9264568 4.27578601 -14.375 2.9375 C-13.66214844 2.54755859 -12.94929687 2.15761719 -12.21484375 1.75585938 C-7.79042854 -0.53753016 -4.97384485 -1.66541652 0 0 Z " fill="#638B07" transform="translate(219,426)"/>
<path d="M0 0 C2.5 1.5 2.5 1.5 4 4 C4.791013 8.02098277 4.62153384 10.96411027 2.5 14.5 C-1.03588973 16.62153384 -3.97901723 16.791013 -8 16 C-10.5 14.5 -10.5 14.5 -12 12 C-12.791013 7.97901723 -12.62153384 5.03588973 -10.5 1.5 C-6.96411027 -0.62153384 -4.02098277 -0.791013 0 0 Z " fill="#76B602" transform="translate(280,36)"/>
<path d="M0 0 C2 1 2 1 3 3 C3.51981506 6.56444611 3.63102777 9.73794446 2 13 C-1.26205554 14.63102777 -4.43555389 14.51981506 -8 14 C-10 13 -10 13 -11 11 C-11.51981506 7.43555389 -11.63102777 4.26205554 -10 1 C-6.73794446 -0.63102777 -3.56444611 -0.51981506 0 0 Z " fill="#76B602" transform="translate(446,311)"/>
</svg>
